<svg xmlns="http://www.w3.org/2000/svg" version="1.1" xmlns:xlink="http://www.w3.org/1999/xlink" xmlns:svgjs="http://svgjs.dev/svgjs" width="2000" height="1252" viewBox="0 0 2000 1252"><g transform="matrix(1,0,0,1,-1.2121212121212466,-2.01935483870966)"><svg viewBox="0 0 396 248" data-background-color="#ffffff" preserveAspectRatio="xMidYMid meet" height="1252" width="2000" xmlns="http://www.w3.org/2000/svg" xmlns:xlink="http://www.w3.org/1999/xlink"><g id="tight-bounds" transform="matrix(1,0,0,1,0.2400000000000091,0.4000000000000057)"><svg viewBox="0 0 395.52 247.2" height="247.2" width="395.52"><g><svg></svg></g><g><svg viewBox="0 0 395.52 247.2" height="247.2" width="395.52"><g transform="matrix(1,0,0,1,75.54432000000001,108.53896377644341)"><svg viewBox="0 0 244.43135999999996 30.122072447113162" height="30.122072447113162" width="244.43135999999996"><g><svg viewBox="0 0 244.43135999999996 30.122072447113162" height="30.122072447113162" width="244.43135999999996"><g><svg viewBox="0 0 244.43135999999996 30.122072447113162" height="30.122072447113162" width="244.43135999999996"><g><svg viewBox="0 0 244.43135999999996 30.122072447113162" height="30.122072447113162" width="244.43135999999996"><g id="textblocktransform"><svg viewBox="0 0 244.43135999999996 30.122072447113162" height="30.122072447113162" width="244.43135999999996" id="textblock"><g><svg viewBox="0 0 244.43135999999996 30.122072447113162" height="30.122072447113162" width="244.43135999999996"><g transform="matrix(1,0,0,1,0,0)"><svg width="244.43135999999996" viewBox="3.86 -32.03 264.26 32.57" height="30.122072447113162" data-palette-color="#0b82e6"><path d="M23.02-29.52Q24.02-29.52 24.44-29.15 24.85-28.78 24.85-27.93L24.85-27.93 24.85-22.31Q24.85-21.46 24.44-21.09 24.02-20.73 23.02-20.73L23.02-20.73Q22.09-20.73 21.75-21.36L21.75-21.36Q20.58-23.58 18.46-24.74 16.33-25.9 13.62-25.9L13.62-25.9Q10.94-25.9 9.46-24.66 7.98-23.41 7.98-21.31L7.98-21.31Q7.98-20.31 8.5-19.63 9.01-18.95 9.96-18.46L9.96-18.46Q10.82-18.02 11.96-17.74 13.11-17.46 15.04-17.09L15.04-17.09Q17.14-16.67 18.37-16.39 19.6-16.11 20.8-15.63L20.8-15.63Q23.24-14.62 24.62-12.83 26-11.04 26-7.98L26-7.98Q26-5.44 24.8-3.53 23.61-1.61 21.28-0.54 18.95 0.54 15.67 0.54L15.67 0.54Q13.23 0.54 11.15-0.35 9.06-1.25 7.52-2.95L7.52-2.95 7.52-1.05Q7.52-0.2 7.1 0.17 6.69 0.54 5.69 0.54L5.69 0.54Q4.69 0.54 4.27 0.17 3.86-0.2 3.86-1.05L3.86-1.05 3.86-8.37Q3.86-9.23 4.27-9.59 4.69-9.96 5.69-9.96L5.69-9.96Q6.74-9.96 7.1-8.94L7.1-8.94Q8.11-6.1 10.29-4.59 12.48-3.08 15.67-3.08L15.67-3.08Q18.8-3.08 20.47-4.42 22.14-5.76 22.14-7.98L22.14-7.98Q22.14-9.52 21.37-10.49 20.61-11.45 19.14-12.08L19.14-12.08Q18.21-12.5 17.11-12.76 16.02-13.01 14.11-13.4L14.11-13.4Q12.11-13.79 10.75-14.14 9.4-14.48 8.25-14.99L8.25-14.99Q6.3-15.87 5.21-17.37 4.13-18.87 4.13-21.31L4.13-21.31Q4.13-23.83 5.33-25.68 6.54-27.54 8.7-28.53 10.86-29.52 13.62-29.52L13.62-29.52Q15.77-29.52 17.77-28.69 19.78-27.86 21.19-26.44L21.19-26.44 21.19-27.93Q21.19-28.78 21.61-29.15 22.02-29.52 23.02-29.52L23.02-29.52ZM45.07-23.1Q49.66-23.1 51.95-21.04 54.25-18.99 54.25-14.97L54.25-14.97 54.25-5.25Q54.25-3.32 55.86-3.32L55.86-3.32 56.71-3.32Q57.54-3.32 57.9-2.94 58.25-2.56 58.25-1.66L58.25-1.66Q58.25-0.76 57.9-0.38 57.54 0 56.71 0L56.71 0 55.15 0Q53.56 0 52.43-0.79 51.29-1.59 50.95-3.13L50.95-3.13Q48.95-1.37 46.62-0.42 44.28 0.54 41.67 0.54L41.67 0.54Q39.21 0.54 37.31-0.31 35.42-1.15 34.35-2.76 33.27-4.37 33.27-6.59L33.27-6.59Q33.27-10.45 36.03-12.29 38.79-14.14 43.16-14.14L43.16-14.14Q47.04-14.14 50.58-12.89L50.58-12.89 50.58-14.97Q50.58-17.33 49.25-18.44 47.92-19.56 44.97-19.56L44.97-19.56Q43.14-19.56 41.16-19.04 39.18-18.53 37.4-17.63L37.4-17.63Q36.98-17.41 36.64-17.41L36.64-17.41Q35.84-17.41 35.3-18.58L35.3-18.58Q35.03-19.17 35.03-19.56L35.03-19.56Q35.03-20.41 35.94-20.87L35.94-20.87Q37.99-21.95 40.34-22.52 42.7-23.1 45.07-23.1L45.07-23.1ZM43.19-10.69Q40.38-10.69 38.75-9.73 37.13-8.76 37.13-6.67L37.13-6.67Q37.13-4.88 38.36-3.89 39.6-2.91 41.82-2.91L41.82-2.91Q46.68-2.91 50.58-6.93L50.58-6.93 50.58-9.59Q48.92-10.13 47.02-10.41 45.11-10.69 43.19-10.69L43.19-10.69ZM75.58-32.03Q76.41-32.03 76.77-31.65 77.12-31.27 77.12-30.37L77.12-30.37 77.12-3.32 84.96-3.32Q85.79-3.32 86.14-2.94 86.49-2.56 86.49-1.66L86.49-1.66Q86.49-0.76 86.14-0.38 85.79 0 84.96 0L84.96 0 65.82 0Q64.99 0 64.63-0.38 64.28-0.76 64.28-1.66L64.28-1.66Q64.28-2.56 64.63-2.94 64.99-3.32 65.82-3.32L65.82-3.32 73.46-3.32 73.46-28.71 66.79-28.71Q65.96-28.71 65.61-29.09 65.25-29.47 65.25-30.37L65.25-30.37Q65.25-31.27 65.61-31.65 65.96-32.03 66.79-32.03L66.79-32.03 75.58-32.03ZM105.14-23.1Q108.68-23.1 111.19-21.67 113.69-20.24 115.03-17.71 116.37-15.19 116.57-11.89L116.57-11.89Q116.57-11.06 116.22-10.72 115.86-10.38 115.03-10.38L115.03-10.38 97.36-10.38Q97.53-6.74 99.52-4.87 101.51-3 105.14-3L105.14-3Q107.39-3 109.59-3.58 111.78-4.15 113.44-5.1L113.44-5.1Q113.86-5.32 114.2-5.32L114.2-5.32Q115.06-5.32 115.59-4.03L115.59-4.03Q115.81-3.52 115.81-3.1L115.81-3.1Q115.81-2.12 114.74-1.59L114.74-1.59Q112.86-0.63 110.3-0.05 107.73 0.54 105.14 0.54L105.14 0.54Q101.46 0.54 98.85-0.88 96.23-2.29 94.87-4.96 93.5-7.62 93.5-11.28L93.5-11.28Q93.5-14.77 94.99-17.46 96.48-20.14 99.11-21.62 101.75-23.1 105.14-23.1L105.14-23.1ZM105.14-19.56Q102.14-19.56 100.18-18.03 98.21-16.5 97.6-13.79L97.6-13.79 112.52-13.79Q112-16.6 110.16-18.08 108.32-19.56 105.14-19.56L105.14-19.56ZM142.59-23.1Q143.59-23.1 144.01-22.73 144.42-22.36 144.42-21.51L144.42-21.51 144.42-16.87Q144.42-16.02 144.01-15.65 143.59-15.28 142.59-15.28L142.59-15.28Q141.76-15.28 141.42-15.92L141.42-15.92Q140.37-17.92 138.37-18.74 136.37-19.56 133.29-19.56L133.29-19.56Q130.92-19.56 129.59-18.71 128.26-17.87 128.26-16.36L128.26-16.36Q128.26-15.58 128.76-15.09 129.26-14.6 130.24-14.28L130.24-14.28Q131.04-14.01 132.11-13.87 133.17-13.72 134.85-13.55L134.85-13.55Q137.22-13.28 138.67-13.05 140.13-12.82 141.42-12.35L141.42-12.35Q143.37-11.65 144.46-10.3 145.55-8.96 145.55-6.76L145.55-6.76Q145.55-4.57 144.44-2.92 143.32-1.27 141.19-0.37 139.05 0.54 136.07 0.54L136.07 0.54Q133.44 0.54 131.44-0.2 129.43-0.93 127.94-2.42L127.94-2.42 127.94-1.05Q127.94-0.2 127.53 0.17 127.11 0.54 126.11 0.54L126.11 0.54Q125.11 0.54 124.7 0.17 124.28-0.2 124.28-1.05L124.28-1.05 124.28-6.91Q124.28-7.76 124.7-8.13 125.11-8.5 126.11-8.5L126.11-8.5Q126.63-8.5 126.92-8.26 127.21-8.03 127.43-7.5L127.43-7.5Q128.31-5.15 130.36-4.08 132.41-3 135.83-3L135.83-3Q138.66-3 140.18-4.03 141.69-5.05 141.69-6.76L141.69-6.76Q141.69-7.59 141.15-8.13 140.62-8.67 139.61-9.01L139.61-9.01Q138.76-9.28 137.65-9.46 136.54-9.64 134.83-9.81L134.83-9.81Q132.53-10.06 131-10.33 129.46-10.6 128.16-11.11L128.16-11.11Q126.38-11.82 125.39-13.07 124.4-14.33 124.4-16.36L124.4-16.36Q124.4-18.48 125.51-20.01 126.63-21.53 128.59-22.31 130.56-23.1 133.05-23.1L133.05-23.1Q135.41-23.1 137.38-22.39 139.35-21.68 140.76-20.41L140.76-20.41 140.76-21.51Q140.76-22.36 141.18-22.73 141.59-23.1 142.59-23.1L142.59-23.1ZM166.74-28.98Q169.98-28.98 172.3-27.83 174.62-26.68 175.83-24.58 177.04-22.49 177.04-19.73L177.04-19.73Q177.04-16.97 175.83-14.9 174.62-12.84 172.3-11.71 169.98-10.57 166.74-10.57L166.74-10.57 161-10.57 161-3.32 166.86-3.32Q167.69-3.32 168.04-2.94 168.4-2.56 168.4-1.66L168.4-1.66Q168.4-0.76 168.04-0.38 167.69 0 166.86 0L166.86 0 153.38 0Q152.55 0 152.2-0.38 151.84-0.76 151.84-1.66L151.84-1.66Q151.84-2.56 152.2-2.94 152.55-3.32 153.38-3.32L153.38-3.32 157.34-3.32 157.34-25.66 153.38-25.66Q152.55-25.66 152.2-26.04 151.84-26.42 151.84-27.32L151.84-27.32Q151.84-28.22 152.2-28.6 152.55-28.98 153.38-28.98L153.38-28.98 166.74-28.98ZM161-25.66L161-13.89 166.22-13.89Q169.62-13.89 171.4-15.43 173.18-16.97 173.18-19.73L173.18-19.73Q173.18-22.53 171.39-24.1 169.59-25.66 166.22-25.66L166.22-25.66 161-25.66ZM194.96-23.1Q199.55-23.1 201.84-21.04 204.14-18.99 204.14-14.97L204.14-14.97 204.14-5.25Q204.14-3.32 205.75-3.32L205.75-3.32 206.6-3.32Q207.43-3.32 207.79-2.94 208.14-2.56 208.14-1.66L208.14-1.66Q208.14-0.76 207.79-0.38 207.43 0 206.6 0L206.6 0 205.04 0Q203.45 0 202.32-0.79 201.18-1.59 200.84-3.13L200.84-3.13Q198.84-1.37 196.51-0.42 194.17 0.54 191.56 0.54L191.56 0.54Q189.1 0.54 187.2-0.31 185.31-1.15 184.24-2.76 183.16-4.37 183.16-6.59L183.16-6.59Q183.16-10.45 185.92-12.29 188.68-14.14 193.05-14.14L193.05-14.14Q196.93-14.14 200.47-12.89L200.47-12.89 200.47-14.97Q200.47-17.33 199.14-18.44 197.81-19.56 194.86-19.56L194.86-19.56Q193.03-19.56 191.05-19.04 189.07-18.53 187.29-17.63L187.29-17.63Q186.87-17.41 186.53-17.41L186.53-17.41Q185.73-17.41 185.19-18.58L185.19-18.58Q184.92-19.17 184.92-19.56L184.92-19.56Q184.92-20.41 185.82-20.87L185.82-20.87Q187.88-21.95 190.23-22.52 192.59-23.1 194.96-23.1L194.96-23.1ZM193.08-10.69Q190.27-10.69 188.64-9.73 187.02-8.76 187.02-6.67L187.02-6.67Q187.02-4.88 188.25-3.89 189.49-2.91 191.71-2.91L191.71-2.91Q196.57-2.91 200.47-6.93L200.47-6.93 200.47-9.59Q198.81-10.13 196.91-10.41 195-10.69 193.08-10.69L193.08-10.69ZM221.03-29.52Q222.03-29.52 222.44-29.15 222.86-28.78 222.86-27.93L222.86-27.93 222.86-20.61 232.89-20.61Q233.72-20.61 234.08-20.23 234.43-19.85 234.43-18.95L234.43-18.95Q234.43-18.04 234.08-17.66 233.72-17.29 232.89-17.29L232.89-17.29 222.86-17.29 222.86-8.4Q222.86-5.62 223.82-4.32 224.79-3.03 227.18-3.03L227.18-3.03Q228.82-3.03 230.62-3.69 232.43-4.35 234.11-5.44L234.11-5.44Q234.46-5.69 234.87-5.69L234.87-5.69Q235.7-5.69 236.29-4.57L236.29-4.57Q236.6-3.93 236.6-3.47L236.6-3.47Q236.6-2.69 235.8-2.2L235.8-2.2Q233.89-1 231.55-0.23 229.21 0.54 227.18 0.54L227.18 0.54Q223.03 0.54 221.11-1.62 219.2-3.78 219.2-8.08L219.2-8.08 219.2-17.29 214.24-17.29Q213.41-17.29 213.06-17.66 212.7-18.04 212.7-18.95L212.7-18.95Q212.7-19.85 213.06-20.23 213.41-20.61 214.24-20.61L214.24-20.61 219.2-20.61 219.2-27.93Q219.2-28.78 219.61-29.15 220.03-29.52 221.03-29.52L221.03-29.52ZM247.61-32.03Q248.44-32.03 248.8-31.65 249.15-31.27 249.15-30.37L249.15-30.37 249.15-18.21Q250.74-20.58 252.82-21.84 254.91-23.1 257.33-23.1L257.33-23.1Q259.55-23.1 261.19-22.13 262.82-21.17 263.7-19.36 264.58-17.55 264.58-15.14L264.58-15.14 264.58-3.32 266.58-3.32Q267.41-3.32 267.77-2.94 268.12-2.56 268.12-1.66L268.12-1.66Q268.12-0.76 267.77-0.38 267.41 0 266.58 0L266.58 0 258.67 0Q257.84 0 257.49-0.38 257.13-0.76 257.13-1.66L257.13-1.66Q257.13-2.56 257.49-2.94 257.84-3.32 258.67-3.32L258.67-3.32 260.92-3.32 260.92-14.77Q260.92-16.94 259.92-18.21 258.92-19.48 256.96-19.48L256.96-19.48Q254.89-19.48 253.09-18.29 251.3-17.09 250.22-14.99 249.15-12.89 249.15-10.3L249.15-10.3 249.15-3.32 251.4-3.32Q252.23-3.32 252.58-2.94 252.93-2.56 252.93-1.66L252.93-1.66Q252.93-0.76 252.58-0.38 252.23 0 251.4 0L251.4 0 243.49 0Q242.66 0 242.3-0.38 241.95-0.76 241.95-1.66L241.95-1.66Q241.95-2.56 242.3-2.94 242.66-3.32 243.49-3.32L243.49-3.32 245.49-3.32 245.49-28.71 243.24-28.71Q242.41-28.71 242.06-29.09 241.7-29.47 241.7-30.37L241.7-30.37Q241.7-31.27 242.06-31.65 242.41-32.03 243.24-32.03L243.24-32.03 247.61-32.03Z" opacity="1" transform="matrix(1,0,0,1,0,0)" fill="#0b82e6" class="wordmark-text-0" data-fill-palette-color="primary" id="text-0"></path></svg></g></svg></g></svg></g></svg></g></svg></g></svg></g></svg></g><path d="M219.671 102.539L219.671 38.428 390.016 38.428 390.016 208.772 219.671 208.772 219.671 144.661 222.387 144.661 222.387 206.056 387.299 206.056 387.299 41.144 222.387 41.144 222.387 102.539Z" fill="#0b82e6" stroke="transparent" data-fill-palette-color="tertiary"></path></svg></g><defs></defs></svg><rect width="395.52" height="247.2" fill="none" stroke="none" visibility="hidden"></rect></g></svg></g></svg>